<svg fill="#000000" xmlns="http://www.w3.org/2000/svg" width="276.328" height="200.125" viewBox="0 0 476.328 237.125">
  <path d="M123.424 48.972c.642-.254 2.762 2.12 3.017 2.12s1.53.17 1.53 1.02-2.63.425-3.05.89-4.15 1.484-4.83 1.484-1.18.933-1.78 0-.68-.424-.59-.933.17-.876.6-1.625.85.777 1.61.523 1.78-1.69 2.21-1.78 1.31-1.69 1.31-1.69zM5.91 65.846c-.423.51.764 2.375 1.19 2.714s.083 1.357.847 3.393 2.63 4.92 3.478 5.514.34 1.61.933 2.12 8.652 6.956 11.62 7.89 6.702 1.102 14.166 0 9.585-2.715 11.196-3.648 3.563-2.04 4.326-3.14 1.526-2.63 1.103-3.48 3.3-3.82 4.24-6.28 3.98-6.36 4.66-8.91 3.33-1.81 4.66-3.74c3.47-5.01 8.39-7.21 7.89-8.15s-3.48-3.4-3.74-4.33-1.02-.77-2.72-2.38-5.94-9.33-7.89-11.37c-5.75-6-9.33-11.45-11.45-12.39s-6.8-.82-7.98-1.19c-5.85-1.87-9.76.25-13.74.85s-6.36 2.63-8.32 3.98-4.67 4.67-8.65 9.33-3.82 5.94-5 10.27-.92 14.2-.92 15.46c0 1.86.51 6.95.09 7.46zm8.143-25.107c1.018-3.65 3.053-7.3 8.567-10.18s9.076-4.24 13.063-3.23 5.513 1.69 6.786 2.2 10.26 6.78 11.11 7.97 4.58 6.72 6.1 8.9c.48.68 3.73 2.71 4.41 2.88s4.07 2.54 4.07 2.54-3.9 2.29-6.62 5.26-7.13 10.94-8.91 12.63-6.7 7.55-6.96 7.97-1.61 3.39-6.7 2.46-13.57-1.28-16.88-5.09-3.31-3.3-3.31-3.81-.51 1.02-1.11.34.76-1.02 0-2.38-4.58-6.45-4.58-6.45-1.36-2.63-1.28-6.02S13 44.36 14.02 40.71z"/>
  <path d="M31.696 48.458c.51.764 2.29 3.563 2.205 5.768s1.96 3.223 1.96 2.97 3.06-6.532 3.73-8.06 3.23-9.5 3.48-10.262.17-1.612-1.19-1.95-1.36.083-2.29.423c0 0-2.71-.17-4.32-.548s-3.56.88-4.32.71-.93 3.99-.76 7.64 1.02 2.54 1.53 3.3zm2.63 27.652c.933-.256 2.46-.255 2.884-.764s1.272 0 1.696 0 .51-.085.68-1.272-.34-1.61-.595-1.95 1.19-1.613 1.45-2.546-.42-1.526-1.35-1.526-2.51-1.7-3.05-1.866c-1.95-.594-4.49-2.12-4.41-1.442s-1.86 4.58-2.2 5.428 1.95 2.63 2.21 3.987 1.79 2.2 2.72 1.95zM475.23 199.44c-.34-.086-5.344-4.242-5.853-4.242s-6.616-5.853-7.465-6.615-5.513-5.514-5.768-5.853.253-2.46.253-3.14 5.684-2.29 5.938-2.628 3.054-2.29 3.563-2.884 2.29-1.527 2.206-3.138-1.95-1.697-3.224-1.357-4.156.424-5.174 0-5.684-.594-6.362-.594-.424.59-1.526.59-2.884-3.82-3.9-5.18-5.178-5.86-8.74-8.4-5.174-2.38-5.938-2.97-2.884-1.61-2.97-.77 0 2.12 0 3.48-.763 2.97-.763 2.97-.424.59-1.696-1.36-2.12-4.07-2.12-4.84-3.22-4.84-4.66-6.53-5.68-5.6-7.89-6.37-8.22-2.89-11.45-3.99-7.12-3.4-9.07-5.77-7.72-8.14-7.72-8.57 0-1.27-1.18-3.48 0-2.8-1.35-5.01-6.44-8.32-7.97-9.08-7.72-5.18-7.72-5.18l-.08 1.95s-1.52 1.95-1.78 2.03.51 1.78.85 2.54-.68 3.06-1.61 3.23-4.92-3.4-7.55-6.19-7.46-4.84-9.92-6.03-8.82-4.07-14.17-7.04-8.74-9.25-10.09-10.77-2.97-8.06-3.05-8.65-.93-3.4-1.19-7.3-5.59-10.86-6.27-11.71-1.1-8.32-1.44-9.93.17-10.94 0-13.23-.42-11.71-.42-13.57-.93-6.54-1.78-8.66-1.61-5.6-2.04-5.26-3.05 1.27-3.98.51-5.94-.6-6.36 0-5.26 5.43-6.36 5.76-6.62 3.65-7.12 4.07-11.19 7.72-11.96 8.48-26.04 20.52-26.55 21.29-25.36 18.57-26.04 19.08S197.08 73.32 196.4 74s-1.27 1.53-2.12 1.44-3.816.17-4.58.51-2.97-.51-3.986-.34-2.712 1.78-3.48.085c-1.212-2.7-1.864-.85-2.46-1.02s-7.97 2.04-8.564 2.12-10.35 3.48-11.2 3.736-9.67 2.72-10.27 2.46-2.29 1.7-3.22 1.7-6.36.93-7.55.68-.93-1.7-1.36-2.88-1.95-1.7-3.303-1.63-1.864.02-2.543 0-2.63-1.17-3.82-.4-1.78.26-2.12 0-1.95-1.27-2.37-2.03 0-2.46-.17-2.97-.596-1.7-1.19-1.7-1.44.85-1.95 1.2-1.868-.18-3.056-.01-1.27-1.44-1.27-2.29.85-1.36 1.36-2.1 1.613-1.12 2.715-.42 1.95.41 3.303 0 3.307-.27 3.816-.36 1.78.85 2.12 0 4.33-1.52 5.6-2.29 5.003-2.71 5.43-3.64 3.65-4.92 4.07-5.77.764.85.764 1.95 1.1 2.72 1.27 2.97 1.78.6 1.78.6.59 1.45 1.697 2.04 3.394 2.04 4.67 2.04 4.66 1.02 6.27 1.19 5.35-.51 5.77-.93 1.106-2.63.597-2.46-2.04-.42-2.12-.85-1.02-1.44-1.28-1.44-2.29-.85-2.71-1.27-2.54-1.87-2.97-2.12-.59-1.02-2.12-1.7-1.27-1.44-1.44-.89-.76 1.32-.93 1.83-1.184-.08-1.27-.34-1.44 0-1.78-.42.34-.51.34-1.06 1.527.05 1.78 0 .51-1.054.51-1.054-1.61-2.29-2.714-2.8-1.19-1.866-1.44-2.29-1.7-3.05-2.38-4.58 0-3.987 0-3.987c-.767 0-1.02 1.61-1.106 1.86s-1.616.85-1.7.34-.764-1.87-1.103-2.12-.68-2.29-1.19-3.905-1.27-1.61-1.78-1.98-1.78-.57-2.04-1.33-3.22-3.31-3.98-3.65-1.864.68-2.204.42-3.82-3.65-4.493-3.9-5.51-2.12-5.51-2.8-3.3-2.375-4.07-2.036-1.27.6-1.95.43-5.26-1.44-6.02-1.44-3.14-2.035-3.65-2.035 0 .934-.593.934-1.02-.68-2.04-3.14-2.89-1.78-4.323-1.7c-.65.04-3.73.17-5.17.85s-1.1 3.057-2.12 4.5-2.54-.34-2.54-.34.68 1.7 1.27 2.8.17 3.816 1.11 4.325 4.07 2.03 4.5 2.2 1.61 1.19 2.12.93 1.1-2.72 1.36-2.12.76 4.58 1.27 6.36 2.203 6.87 2.54 7.21 1.11-.17.68.68-4.66 6.53-5.34 8.73-1.78 3.05-3.48 6.87-9.16 6.11-11.365 7.04-7.46 1.95-7.26 2.55.3 1.19 3.01 3.06 6.02 3.14 6.36 4.03.34.802 1.61.38 4.16-2.12 7.55-4.24 5.26-4.5 6.61-4.16 2.8-.51 3.56-.85 1.78 1.02 2.542 1.272 3.73.337 4.07.677-.17 3.9-.34 4.75-1.19 2.29-2.12 2.716-2.207.17-3.734-.55-1.52 1.14-1.95 1.31-1.69-.258-2.71-.598-3.39 1.19-3.65 1.19-.68.253-3.56.17-5.85 2.63-6.79 2.29-2.46.25-2.8.51-1.61 4.07-1.87 5.004 1.02 1.44.76 2.205-7.12 7.13-8.56 7.72-1.27 1.61-1.61 2.37-5.34 6.36-5.34 6.36-.255 1.36.42 1.7.6 1.44.68 3.48 1.69 7.04 2.46 7.72-1.447 1.61-2.21 2.29-4.495 1.36-5.43 2.71 2.04 1.79 1.19 1.96c-1.43.28-1.02 3.98-1.27 4.07s-8.14 10.6-9.246 11.79-11.87 15.27-12.72 15.86-2.97-1.19-4.492-1.87-2.22-3.39-2.64-3.39-3.31 7.38-3.82 9.16-.937 6.02-.428 6.45-1.95 2.8-2.21 3.82-2.72 5.17-3.4 5.85-4.58-3.644-7.13-6.274-6.79-10.265-7.72-12.216-1.87-3.48-1.95-2.55-3.9 3.982-6.19 9.5-1.02 9.33.59 13.312 6.1 7.04 6.87 7.89c.76.85.85 1.61-.34 2.29s-1.53.42-2.21.42-1.61 1.87-2.04 2.29-1.44 3.9-1.44 5.09 3.65-.17 4.327.85-1.27 3.9-2.46 5.6-3.053 2.207-3.14 3.14 3.05 5.26 3.65 5.6 2.63-2.63 3.396-4.154 1.523-1.86 1.692-2.8.763-2.03 1.102-2.97.6-.42 2.12-.33 1.1.424 1.95 1.19 2.04 1.02 3.57 1.866 2.8 2.717 3.22 2.208-.25-1.53-.25-1.53 1.27-1.02 2.04-1.525-.85-3.56-1.78-5.34-3.99-5.346-3.14-5.43 3.225 3.48 3.565 3.986 8.4 8.06 8.74 8.39 9.16 7.89 11.196 8.57 9.5 5.94 11.024 6.95 16.11 7.97 19 8.82 16.45 7.04 19.42 7.38 16.12.426 18.58.595 7.04-.68 7.72-.93-.43-1.105-.34-1.95.17-1.87.17-2.72-2.38-1.44-3.48-1.86-9.25-2.8-11.2-3.14S85 220.36 85 220.95s2.46 2.04 4.92 2.718 17.892 5.17 18.4 5.51 3.904.6 3.734 1.78-2.8 1.278-3.99 1.448-8.14.34-11.194 0-11.11-2.97-12.894-4.07-11.79-6.27-13.144-8.06 1.27-1.01 1.78-2.03.59-1.78-.68-2.88-1.44-1.865-.85-2.205.764-1.86 1.02-3.3-1.867-.76-3.988-2.46-4.5-6.02-5.008-7.63 1.27-3.82 2.207-3.31 1.695 1.78 2.63 2.29 8.99 5.09 11.28 5.26 9.583 4.32 11.535 5.17 20.02 9.42 24.854 11.11 18.572 6.96 22.22 7.3 7.294 2.29 13.49 2.46 12.212 1.52 21.8-1.1 15.774-9.93 15.774-9.93-3.904-.51-5.94-1.44-5.09-.25-7.38-.76-11.535-1.69-14.25-2.63-19.084-5.77-20.865-5.68-9.92-3.13-11.19-3.22-14.92-4.32-15.6-5.09.08-5.34.08-6.44 0-4.41-.42-5.77-1.36-7.21-1.44-8.14-.59-6.11-.59-7.72.17-16.71.17-18.57.6-10.6.94-10.94.85.09 1.36-.25 1.36-.68 2.88-.26 4.33 1.61 4.41.59.77-3.65.77-4.32-.09-7.634.17-9.076.84-12.213 1.44-15.86 1.02-8.99 2.12-9.5 5.94-.933 5.77-1.87 1.78-4.67 2.71-5.682 3.73.43 5 .6 3.48-.85 4.41-1.443 18.49-.84 19.93-.84 8.74-.597 9.59-.427-3.73 4.24-5.26 5.94-7.88 6.36-6.7 7.04 2.21 1.447 3.06 2.46 1.78 1.87 3.82 1.78 1.95-1.013 3.31-1.95 11.11-9.5 12.05-10.35 5.175-3.3 5.684-4.32 8.74-6.02 9.67-7.21 12.897-10.69 14.08-12.043 9.42-8.23 11.62-9.757 3.907-1.78 4.92-3.644 6.45-4.75 7.55-6.19 14.93-11.79 16.798-13.57 21.37-15.61 22.98-16.71 15-11.978 15.34-11.72 2.03 0 5.43-1.528 3.56-.26 3.56.08-.68 2.12-.6 2.97 1.36 6.87 1.36 8.65-.76 10.6-.85 11.53 1.19 1.7 1.19 2.04.85 7.21.93 8.65.85 5.76 1.61 7.8 8.91 13.65 9.42 14.16-1.524 6.78-.85 7.72 5.6 12.3 6.026 13.06 3.31 4.322 6.108 7.55 14.84 7.89 16.37 8.65 13.99 5.6 15.01 6.19-.17 2.63.17 3.31.938.932 1.277.932 1.44-.51 1.78-.51 1.27.68 1.27 1.02-4.16 3.39-3.73 4.07 4.24 3.73 4.92 4.836 3.82 3.48 4.58 3.48 3.31-2.21 4.24-2.38 5.43-2.46 6.45-2.29 6.53 6.53 6.95 7.04 6.534 7.97 7.47 8.99 2.8 5 3.9 5.77 3.564.17 4.07.51 6.79 2.12 8.91 2.37 6.7 5.45 8.06 6.27c1.02.614 5.52 5.426 5.94 5.766s5.6 4.325 4.84 5.09-5.68-1.36-6.36-1.36-3.48-1.95-3.99-1.53 3.39 9.08 4.07 9.84 5.17 5.686 5.17 6.11-.93 3.983-.68 5.595 1.36 3.99 3.73 4.24 3.05-.42 3.56-1.69 3.9-1.44 4.327-1.103c.42.34 4.49 2.72 6.272 2.97s6.62 1.7 6.62 1.7.51 0 .51 2.46 3.05 7.12 3.82 8.05 4.16 5.77 4.833 6.62 4.33 5.18 4.84 4.24 1.35-9.58.93-11.96.59-1.27 1.52-1.35 3.06 1.27 3.73 1.52 2.38 1.36 4.67 1.36.35-2.04.01-2.13zM15.176 184.694c-.808 0-1.212 1.715-2.423 1.11-1.21-.605-3.735-3.23-5.15-5.15s-1.513-5.35-1.917-5.45-.91-1.314-.808-2.727 1.616-5.417 2.827-4.98.694 2.153 2.82 4.778 4.853 8.884 5.66 9.39c.6.375-.2 3.03-1.01 3.03zm80.73-98.657c.084-.68 1.102.51 1.696 0s.17-4.666.678-4.92 1.78-.51 1.78-.51c.255 0 2.63.086 3.31.934s-.51 4.5-.51 4.5l-.51 2.2s-.214 2.63-.53 3.31-.487 1.53-.487 1.53-4.834.85-4.92 0-.593-6.36-.508-7.04zm-12.133 19.678c.426-.68 3.226-3.817 3.395-4.156s2.346-1.26 3.308-1.36c1.696-.17 4.43-3.99 4.156-2.29-.096.59-.848 4.07-1.188 4.83s-2.97 7.04-3.14 7.63-2.798 5-3.477 4.49-3.14-2.89-3.054-4.41.593-2.38.51-3.4-.936-.68-.51-1.36zM70.3 125.835c.505-.2.504-.75.808-.78s-.2-.027.404-1.037 1.11-2.434 1.615-2.075 1.085.515 2.12.36c.5-.076 3.635-.81 3.938 0s-.202 1.514-1.97 1.917-2.775.807-2.775 1.413-.404 2.22-1.11 2.22h-2.626s-2.625.708-2.423 0 1.52-1.815 2.02-2.017zM45.16 206.1c-.2.302-1.513-.102-2.32 0s-4.343-2.525-5.958-3.636-3.635-3.533-4.24-3.735-2.625-.51-2.322-1.01-.202-2.73-.707-3.13-5.25-3.44-5.25-3.44-1.716-1.21-1.21-1.82.908-1.32.807-1.72-1.11-2.43-.202-2.83 1.918.5 2.524.91 1.414-.1 1.414-.1l.808 1.21s.908 2.22 2.322 2.62 2.726.5 3.433 1.81.4 1.15 1.81 1.99 2.02.93 2.52 1.44 1.71 1.21 2.22 1.41 1.61 1.32 2.32 2.07 4.03 3.38 4.14 3.98-1.92 3.63-2.13 3.94zm5.655-15.146c-.202 1.11-1.716 3.433-2.423 3.433h-2.827s-5.553-3.432-6.16-3.836-2.422-3.13-3.33-3.53-1.516-1.03-1.415-1.47-.605-2.16-1.11-2.26-3.03-1.81-3.03-1.81-1.614 1.42-1.715.81 1.21-3.95 1.21-4.29.594-2.32 1.516-1.27c.67.76 3.94 4.77 4.85 4.87s1.42.91 2.02 1.11 1.62.71 2.53 1.31 3.44 1.57 4.04 1.95 1.02.28 2.33 1.49 2.52.84 2.83 1.03.91 1.4.71 2.51zm2.12-5.562c-.707-.092-1.23-1.404-2.08-1.404s-1.555 1.414-4.18.202-3.534-4.246-4.645-5.1-4.038-3.48-4.543-4.188.1-1.717 0-2.524-1.013-2.12-.204-2.12 2.324-.808 3.13 0 2.222 2.524 2.222 2.524c.91.91 2.12 2.89 3.23 3.918s2.827 2.846 3.938 3.654 3.433 1.414 3.635 2.524.204 2.606-.503 2.514zm-1.312-14.225c-.303-.91-1.312-2.02-1.716-2.12s-.303 1.11-1.616.605-3.83-2.22-4.44-4.24 2.73-4.645 3.94-6.16 7.27-8.682 7.78-9.388 6.06-6.865 6.26-7.673 3.64-5.14 4.24-5.85 2.73-4.54 3.13-3.13.1 1.62.31 2.33 2.93-1.51 2.93-1.51c1.12-.4 3.74-1.11 4.45-1.41s2.63-1.41 3.23-2.22 1.72-2.21 1.72-2.21-.1 1.82-1.11 2.92-1.14 1.51-1.43 2.52-.89 2.33-.58 2.63 1.82-1.21 2.02 0-1.92 1.72-1.92 2.43-.5 1.51-.8 2.22-3.57 4.75-4.21 6.16-3.97 6.86-4.37 7.77-5.35 8.18-6.26 9.29-2.02 2.33-2.02 2.83-.1 2.93-.81 3.13-2.12 3.53-2.22 4.04-6.16-2.02-6.46-2.92zm19.788 1.615c-.3 1.313-3.43 12.015-4.34 13.327s-2.32 2.22-3.33 2.32-3.23-.51-4.54 0 3.64-9.9 4.55-11.51 4.34-7.68 4.75-8.89 1.11 0 1.11 0c.91.1 2.32-.2 2.53.91s-.4 2.52-.7 3.83zm23.73 28.875c-.6 0-1.81.605-1.41.908s.91 2.02-.3 1.918-1.66.708-5.93-1.01-6.08-3.635-6.89-4.038-3.63-2.423-4.54-2.928-2.52-1.21-2.42-1.716 1.52-.5 1.92-.8.1-2.21 1.32-2.21 2.53.91 2.53.91c1.21.41 2.98 1.62 4.12 1.92s4.47 2.52 5.28 2.52 4.85 1.82 5.35 1.82.41-.81 1.01 0 .61 2.73 0 2.73zm-18.17-32.61c-.2-.707 2.93-2.315 4.34-3.984s3.84-3.89 4.45-4.9 6.06-4.24 6.06-4.24c0 .404-.3.91-.4 1.918s-.5 3.74-.6 5.05-.71 2.83-.5 4.55.77 8.08.74 8.89-.71 2.02-.77 2.83.2 3.33.78 5.05.98 2.53.78 3.13.21 2.02-.75 2.63-.96 1.92-1.57 1.82-6.66-3.63-7.67-3.63-3.13-1.61-3.63-2.12-3.03-1.31-3.03-2.62 1.62-10.5 2.02-11.41 0-2.21-.2-2.92zm24.74 24.028c-2.42-.605-3.23-3.532-3.83-5.148s-2.73-11.207-2.73-12.217.61-11.71.61-12.72 1.21-10.524 1.32-11.825-.81-1.2-1.31-1.2.3-1.514 0-2.12-2.73-1.515-3.03-1.918-4.24 3.735-4.64 4.34-5.15 5.554-6.26 6.362-5.85 5.14-6.46 5.95-2.62 3.19-3.43 3.11-1.92-2.3-1.01-3.52 4.24-4.85 4.34-5.25-1.11-.41-.4-2.02 4-6.06 4.43-7.27 3.66-4.44 3.66-5.25 2.22-6.16 4.14-5.45 5.05 1.31 5.05 1.31c1.82-.21 2.32-.21 4.04.7s4.44.81 5.05.7 4.45-.41 3.94 1.92-.7 8.98-.7 10.19-1.42 6.76-1.42 7.47.71 18.27 1.01 20.19 2.02 11.1 2.12 12.11-2.02 2.12-4.44 1.51zm22.01 18.274c2.43.5 11.69 3.45 12.83 3.63 1.51.24 4.75.91 6.66 1.41s7.27 2.22 8.59 2.32 7.88 2.22 8.79 2.22 2.12.3 2.12 1.21-6.26 3.23-7.17 3.63-5.75-1.32-7.57-1.82-6.86-2.32-7.67-2.53-5.45-1.01-6.05-1.72-4.24-2.73-5.86-3.33-5.45-3.13-5.95-3.64-1.11-1.92 1.31-1.42zM113.13 56.69c-.678-.6-1.697-.6-2.375-.938s-.85.914-.767 1.475.045 3.784-.02 4.38.36 1.864.53 2.29-.51 2.034-1.19 1.864-4.41-2.54-3.9-4.41.244-2.03-.048-2.63.386-.44.556-1.49.258-4.1.937-3.76 1.104-2.37 2.036-3.05.17-2.88.59-3.43-.43-1.48.59-1.65c1-.16 1.74 2.4 2.11 1.68.04-.1.06-.13.01-.02-.01.01-.01.01-.01.02-.2.42-.94 2.2-.33 2.4.76.26 1.52 0 1.78.26s-.09 1.69.42 1.44 1.1-1.19 1.35-1.7 1.19-2.8 1.52-3.31-.93-.85-1.19-.85-1.36-.93-1.1-1.02 1.19.43 1.95 0-1.27-.85-.85-1.1-.34-.51 1.1-.76 2.09-.01 3.22-.17c1.85-.26 6.11-1.27 7.38-1.27s4.32-.85 5.26-.85 4.32-.93 4.32-.34-1.44 2.04-1.78 1.87-1.02-.42-1.19 0-1.1 1.02-1.61 1.02-1.19-.17-1.02.51-.17 2.37-.43 2.71 2.29 2.55 2.38 3.06 1.95-.17 2.37-.34 1.95-.42 2.04-.76-.93-1.95-.42-2.71 1.19-.25 1.27 1.44.68 3.48.85 4.16.25 1.19.85 1.36 1.36 1.28 1.19 1.95-1.28 2.21-1.28 2.46-1.1 1.79-1.36 2.29-1.78 1.28-2.29 1.53-2.12 1.11-2.21 1.95-1.27 3.48-1.78 3.99.08-3.39.17-3.65-.26-1.52.42-2.03-.51-1.69-.08-1.86.42-.43.51-.85-.85-1.27-.26-1.61 1.1-1.1 1.1-1.1l-2.62-.76s-.94.94-1.45.68-2.71 1.1-3.648 1.61-4.24 1.44-6.02 1.44-4.67-.61-5.6-.81-1.36.05-2.04-.54zm1.866 5.6c.427-.17.936-1.11 1.7-.77.31.14 1.356-.255 2.12 0s2.375.03 3.223-.113 3.14.31 3.64 0 2.2-1.103 2.29-.028-.93 1.16-.6 1.75.08 1.78-.34 1.78-.51.33-1.1-.35-1.27-.42-1.27-.42-4.07 0-4.75-.43-2.77-.59-2.23-.42.02 1.35.96 1.27 3.39-.6 3.69 0-1.74.94-2.59.77-2.12-.52-2.38-.77-.77.43-1.61.43-1.19-2.55-.76-2.72zm16.2 29c-.08.764-3.56 4.497-3.9 5.09s-.932 1.018-1.61 1.188-2.49 1.19-2.855.85.65-5.11.82-5.9-.59-1.134-.08-1.81.43-1.445.17-1.53-2.04-1.1-1.44-1.95 2.55-1.19 3.14-1.19 1.35.5 1.87.51c.34.006 2.8.084 3.73 0s1.95.332 1.7 1.692.42 2.04.68 3.057-2.12-.763-2.21 0zm62.004-9.07c-.34 2.38-2.29 2.8-3.31 2.97s-1.95 1.28-2.375.85-3.73-4.24-3.303-5.43 2.63-1.69 6.36-.76c.746.19 2.97 0 2.63 2.378zm182.62 35.63c-.17 1.107-2.46 2.8-3.818 2.97s-4.073 1.95-4.41 1.61-.68-.76-1.274-.76-.678 1.104-2.205-.083-2.29-2.12-.68-2.544 3.815-.85 4.324-.85 1.865.087 1.95-.17.306-3.644-.398-4.24-1.56-2.543-1.22-3.645 2.83-.352 3.31 0c.94.703 3.9 3.903 4.41 4.667s.17 1.95 0 3.05zm75.49 65.23c-.51.595.254 2.376-1.696 1.78s-3.48-1.524-3.99-1.61.68.764-1.27.34-3.647-2.035-3.9-2.205-4.41.594-5.09.085-1.274-1.104-1.7-.68-1.354 1.356-1.524 1.02-1.526-3.226-.594-3.565.85.085.935-.68-1.95-1.78-2.97-3.39-.93-1.61.51-1.443 1.87.51 2.38.34.77-.51 1.36-.51 1.61.255 2.04-.34.6-3.306.94-4.24.09-3.477.77-3.646 3.39 1.27 3.39 1.27c-.59 1.44.34 4.41 1.02 4.75s.94-1.27 1.44-.934.68 1.78 1.53 1.865 1.61-.424 2.29.594 2.72 4.58 3.06 4.92 2.46 4.92 2.38 5.6-.76.09-1.27.68z"/>
  <path d="M293.035 208.44c2.148.087 2.148.86 3.61.517s5.843-.945 7.56-.945 3.01.518 4.47.517 7.13.6 7.732.51-7.132.94-7.99 1.2-1.978 1.2-3.18 1.03-2.922-.78-3.352-.6-1.117.3-2.32.62-3.61-2.06-3.953-1.65-1.804 1.46-2.578 1.67-.516-.3-1.72 0-2.92-.62-3.522.05-1.89 1.1-1.72 2.13 2.75 1.03 3.18 1.03-2.835-.52-1.288 1.54 6.1 1.2 6.788 1.29 4.04.94 4.64.77 1.633-.78 2.58-.69 8.85.9 9.623.71 3.847.58 4.845.49 6.497.27 7.27 0 1.117-.96 2.063-.96 4.984 1.29 5.156 2.49-1.64 2.32-3.44 1.98-6.1.3-7.74.06c-1.64-.23-6.19-1.01-7.82-1.01s-7.05.43-8.51.09-3.61.34-4.73.43-6.28-.6-7.39-.69-6.96-.09-9.45.43-13.24 1.29-13.49 1.29-3.01-1.72-4.04-1.72-4.39-.43-6.19-.86-3.18-.17-3.95-.43-2.5-1.12-3.7-1.12-6.02-.09-8.34-1.03-2.32-.43-3.78-.43-2.15-.26-2.58-.26-2.67.51-3.53.26-3.18-.18-3.95-.18-1.98.34-3.36.43-6.45.6-7.14.34-2.84-.26-3.44-.26 18.65-2.84 19.42-2.84 8.59.09 9.97-.17 6.61-1.46 8.51-.52 10.31.6 12.12.52 6.87-.17 7.56-.09 5.77 1.07 6.96-1.81c.6-1.46 5.08.12 5.33-.43.52-1.16-3.27-2.365-2.32-3.31s11.08-.47 11.08-.47z"/>
</svg>
