<svg xmlns="http://www.w3.org/2000/svg" width="179.639" height="144.993" viewBox="0 0 179.639 144.993" fill="black">
  <path d="M90.704 144.98l16.223-41.5 4.475-2.527 4.167 6.09 9.56 37.95M65.4 28.188c1.088.206 2.217.797 2.217 2.212 0 1.408-2.52 1.704-3.83 0-1.31-1.717.6-2.418 1.61-2.212z"/>
  <path d="M179.602 56.86c-.508-1.106-5.13-2.315-7.247-3.022-2.115-.7-8.75-.604-8.75-.604s.597-1.305 1.31-2.013c.695-.7 5.126-2.81 4.322-3.52-.81-.7-13.58-1.81-17.915-2.21-4.32-.4-10.56.91-14.783 1.01-4.23.11-17.01.91-17.71.6-.71-.29-1.31-2.51-5.03-6.22-3.73-3.73-8.15-4.63-11.17-4.63-3.02 0-9.26.7-9.26.7-.3-1.31 2.42-3.82 5.23-5.73 2.81-1.91 6.94-4.02 7.05-3.62.1.41 1.4 1.41 3.42 1.41 2 0 5.32-1.1 5.32-3.51 0-2.42-2.11-5.23-4.53-5.13-2.41.11-5.53 3.12-5.53 3.12s-7.87-.27-13.59-.71c-3.65-.27-11.57 1.31-12.48 1.31-.91 0-2.12-.8-4.13-1.31s-10.26-3.02-10.97-3.02c-.71 0-2.31 3.02-2.41 3.62-.1.6 1.3 1.41 1.2 1.72-.1.3-1.81.4-2.11.4-.3 0-4.23-1.71-5.13-2.42-.91-.7-5.43-2.01-9.56-2.91-4.13-.91-7.15-.31-7.75-1.41-.61-1.1-2.52-1.1-3.32-1.8-.81-.71-1.52-2.922-2.52-4.33-1.01-1.402-4.13-7.04-4.13-7.04s2.11-.092 6.03.6c3.93.71 4.93 1.418 5.533 1.21.604-.2 0-4.723 0-4.723s-.5-.91-3.11-1.41C33.303.72 26.88-.103 21.333.01 17.81.088 5.44 2.73 2.32 5.946c-3.116 3.222-2.717 5.633-1.006 4.43 1.71-1.208 5.935-2.918 9.054-4.23C13.49 4.84 18.522 4.64 19.222 4.84c.704.2 6.34 11.877 6.945 12.275.598.398-.604-.398-1.106 4.025-.5 4.424 3.32 5.028 3.32 5.028s.4 3.93.11 7.55c-.3 3.62-1.41 5.632-.7 6.03.71.4 7.47-4.488 7.45-5.434-.1-3.318.71-7.542.71-7.845s1.11-.81 1.71-1.11c.61-.3 2.21.5 3.32.6 1.11.1 7.45 2.31 8.05 2.41.61.1 0 0 .5 2.01.51 2 2.62 3.21 4.53 3.21 1.91 0 4.83-.41 5.73.4 3.1 2.76 7.31 4.01 9.97 4.93 2.62.9.71 1.2 4.23 2.92 3.52 1.7 6.14 4.62 6.14 4.62s-8.55-.1-12.27 0c-3.72.1-13.98-.1-20.62 0-5.7.08-18.71 2.91-18.51 3.71.2.81 5.136 3.32 7.65 4.07 4.205 1.23 18.41 7.91 27.67 7.91 6.27 0 25.05 1 25.05 1s1.41 2.31 4.226 3.22c2.817.903 5.537.903 5.937.6.4-.3 4.33 8.96 5.53 11.473 1.21 2.516 5.84 14.386 5.13 14.284-1.49-.217-5.534-1.41-8.15-.507-2.607.91-4.12 5.537-4.82 6.238-.706.71 0 10.57.3 10.11.3-.46 5.633-5.98 6.34-5.98.7 0 1.704 4.63 2.31 4.33s4.63-5.33 4.835-4.62c.19.694 3.82 6.834 4.32 6.224.5-.59 2.42-8.95 2.82-7.95.406 1.013 6.34 7.945 6.34 7.443s.207-5.73.207-6.34.4-.3.1-2.42c-.303-2.11-2.412-4.726-3.02-4.93-.6-.195-.01-2.24-.2-4.227-.13-1.3-2.415-7.138-4.32-11.665-1.92-4.536-6.145-8.76-5.136-8.76 1 0 6.53 1.91 8.75 2.82 2.21.9 6.13 2.314 7.742 2.507 1.61.21.71-.79 1.308-1 .6-.2.2 1.4.91 1.507.707.1 9.86 3.824 12.474 3.824 2.61 0 7.344-.302 7.95 0s-.174 1.086-.604 2.816c-.41 1.665-1.81 5.14.5 5.44 2.317.295 3.92-.715 4.53-1.31.602-.607 2.416 0 3.83 0 1.4 0 5.02 2.92 5.02 2.11 0-.8-1.91-3.926-2.214-4.428-.3-.508 4.43-1.306 4.23-2.11-.2-.8-4.32-2.52-3.32-2.52 1 0 5.94-1.71 5.13-2.11-.805-.4-6.637-1.716-6.637-2.217s5.23-2.41 4.22-2.71c-1.006-.296-5.13-.907-6.138-1.14-1-.224-.9-1.575-3.52-1.575-2.61 0-2.82 1.503-4.13 1.4-1.3-.096-5.03.71-10.353-.5-5.335-1.21-12.78-4.927-11.77-4.927 1.01 0 16.904-.7 25.25-.806 8.35-.103 11.67-1.312 16.397-3.324 4.09-1.73 8.76-3.52 8.257-4.62zM30.996 35.03c-.907.296 0-1.916 0-3.222 0-1.15 2.717.296 3.118.598.4.31-2.215 2.315-3.118 2.624zm4.93-11.272c-.705.193-2.42 1.312-5.534 0-3.12-1.312-3.498-3.993.704-5.138 1.565-.418 4.125.707 4.83 1.208 0 0 .703 3.73 0 3.93zM56.85 31.37s-1.408.63-3.623 0c-2.213-.636-1.008-2.282 0-2.282 1.005 0 3.12.405 3.622.61v1.673zm.504-3.182c-.408.097-5.835-1.518-6.24-1.518-.402 0-1.607.103-1.607.103s-5.435-2.058-6.946-2.386c-1.51-.334-2.71-.437-3.01-.83-.3-.405.35-2.7.91-2.624 1.3.212 7.35 1.21 8.65 1.813 1.31.604 7.85 2.72 8.26 3.325.4.6.4 2.02 0 2.12zm41.25 76.468c-.502-.412-1.006-4.63 0-4.437 1.01.2 3.016 0 3.016 0 .405.39-2.51 4.84-3.016 4.43zm7.743-.81c-1.004.296-1.107-2.61-1.107-2.61s2.22-.425 3.23-.464c.59-.025-1.115 2.772-2.124 3.074zm13.586-2.508c.7-.206 2.103-.875 2.22-.412.16.694 1.208 3.518.693 3.723-.503.2-3.616-3.12-2.914-3.32zm-7.543-.566c.604-.45 2.31-.553 2.31-.553.205.5-.502 4.43-.502 4.43s-2.412-3.45-1.807-3.89zm-21.03-54.58c-.805 2.007-4.933 2.007-6.64 0-1.714-2.012-3.12-3.825-2.62-4.024.508-.193 1.142-.572 2.115-.708.804-.103 4.424-.59 4.727-.797.306-.206 3.218 3.517 2.418 5.53zm-23.445-21.63c1.19.29 6.44 2.11 7.85 2.417 1.41.3 2.612.5 3.316 0 .71-.51 1.11-.96 2.62-.21s4.23 2.01 5.03 2.31c.81.3 2.52 3.12 2.02 3.22-.5.09-7.85-.37-8.35-.94s-1.11-1.78-3.62-2.29-8.55-3.32-9.36-3.42c-.8-.11-.23-1.29.51-1.11zm-7.947 4.526c.808-2.315 2.917-2.694 6.04-2.013 2.214.482 5.33 1.01 6.84 2.013 1.51 1.01 2.614 1.234 3.12 3.234.5 1.993-3.322 2.398-7.248 1.292-3.922-1.105-9.555-2.21-8.75-4.526zM74.86 38.45c-2.616-.41-6.74-2.924-6.74-2.924s7.134.978 8.954.907c2.617-.103 1.936-1.595 1.936-1.595l4.203.22c1.81-.027 6.47-.483 6.604 0 .138.468.64 2.48-4.19 3.394-4.832.9-8.15.4-10.764 0zm-3.12 19.813c-7.446-.495-22.64-4.983-23.64-5.613-1.007-.625 27.167-1.35 30.482-1.42 1.61-.047 11.85-.105 12.918-.51 1.07-.405 8.514-.206 9.42.51.907.7 1.608 3.213 1.004 5.226-.604 2.012 0 2.617-6.537 2.417-6.54-.205-16.2-.1-23.643-.61zm31.186 5.78c-.296.36-5.428 1.25-8.95 0-3.522-1.253-.904-3.362 6.436-2.36 1.163.17 2.822 2 2.514 2.36zm10.07-6.275c-1.313 4.02-5.132 6.636-5.537 6.23-.41-.397-4.33-2.513-3.73-3.317.6-.8 1.91-3.01 1.21-7.04-.71-4.02-5.44-6.84-6.04-7.55-.6-.7-2.53-1.82-2.01-2.91.9-1.91 3.01-1.71 6.14-1.91 2.34-.15 6.74 5.53 8.14 7.04 1.4 1.52 3.11 5.44 1.81 9.47zm49.293 28.37s-3.92-.61-3.53-1.21l.83-1.207c.48 0 2.69 2.42 2.69 2.42zm.6-4.224c0 .598-2.87.495-3.04 0-.18-.508 0-1.813 0-1.813 1.03.1 3.04 1.21 3.04 1.82zm-.61-4.328c.1.4-1.86.7-2.44.4-.59-.303 0-1.71 0-1.71 1.13.1 2.34.905 2.43 1.31zm-2.52-5.44c.92-.103 2.01 0 1.91.61-.1.6-2.51 1.705-2.92 1.21-.4-.508-1.94-1.447 1.01-1.82zm-7.35-11.568c-9.45.103-20.62-.16-22.73-.2-2.12-.038-13.89-.3-13.89-.803 0-.502.6-2.887.4-4.868-.21-1.974-1.21-2.682.2-3.087 1.4-.393 12.66-1.917 17.9-1.107 3 .463 20.63-1.183 23.84.714 1.03.598-2.97 2.187-1.71 3.093 1.31.926 11.36 1.833 11.57 2.746.2.9-6.14 3.414-15.6 3.51z"/>
</svg>
