<svg xmlns="http://www.w3.org/2000/svg" width="117.936" height="115.953" viewBox="0 0 117.936 115.953">
  <path d="M115.563 40.597c-2.1-6.82-7.35-18.195-9.623-20.125-2.274-1.915-8.397-8.043-15.747-12.944-7.35-4.896-19.756-7.714-27.295-7.52-20.643.52-33.592 6.298-38.14 9.794-4.548 3.505-11.723 7.524-18.02 20.125-6.964 13.926-7.35 27.818-6.3 34.116 1.05 6.298 2.45 14.52 8.224 25.894 5.774 11.374 14.694 17.672 27.467 21.87s25.37 5.245 34.81 2.972c9.45-2.28 15.22-4.55 25.02-11.37 9.8-6.83 12.07-10.5 13.12-12.95 1.05-2.45 8.4-11.9 8.75-26.25.35-14.35-.18-16.8-2.27-23.62zM5.71 70.744c-.155-.23-.93-3.226-.85-4.238.077-1.012 4.872-3.645 6.883-4.03 2.01-.388 4.024-.31 5.66 0 2.286.425 5.397 1.392 6.56 1.546 1.16.155 4.794 4.413 4.794 4.876 0 .46-1.082 2.39-1.313 2.738-.232.354-5.493-3.595-9.592-3.825-4.1-.23-6.534.31-8.446 1.09-1.916.77-3.54 2.08-3.696 1.85zm2.783 5.834c.31-1.032 6.427-2.907 9.205-2.473 1.302.204 3.358.438 4.892 1.21 1.528.774 3.77 2.24 3.77 2.24s-1.7 4.18-2.164 4.18-3.3-2.016-7.1-1.317c-3.806.698-6.436 1.007-7.054 1.316-.62.31-1.858-4.124-1.55-5.156zm8.818 18.125c-.3-.21-5.18-5.47-4.56-6.78.62-1.317 2.69-2.494 4.18-2.325 1.09.13 4.41 1.007 4.56 1.316.16.315-3.86 7.994-4.17 7.79zm49.97 0c-.54 1.34-.47 3.346-1.7 7.45-1.23 4.098-1.7 7.418-3.32 8.27-1.62.854-13.92-.228-18.01-1.155-4.1-.928-14.07-4.872-15.7-5.804-1.62-.922-5.26-2.01-5.84-3.246-.58-1.236 1.43-2.17 5.07-9.863 3.16-6.69 6.96-15.433 8.05-18.718 1.08-3.28 5.8-16.385 5.88-17.572.08-1.182 4.02-11.234 4.87-11.313.86-.08 2.02 9.05 6.27 16.863 4.25 7.81 7.81 14.69 8.82 16.315 1.01 1.625 6.05 8.432 6.05 8.432.22.772.14 8.995-.4 10.34zm-2.55-45.3c.39.853 2.01 6.188 2.32 7.195.31 1.007 1.01 2.473 1.01 3.017s-1.46-.464-3.4 0c-1.93.464-2.63 1.162-3.17.618-.54-.543-4.41-5.6-4.25-6.168.16-.563 1.93-5.13 3.02-5.186.62-.03 4.1-.33 4.49.52zm-3.56-4.95c.08-.614.52-2.963.98-2.704.71.39 1.43 2.08 1.12 2.7-.31.62-2.16.62-2.09 0zm7.89 23.823c-2.62.16-4.02.927-4.25.31s-1-2.634-.69-3.092c.31-.464 1.63-1.94 4.95-1.94.7 0 2.09.16 3.87 1.476 1.78 1.316 2.56 2.084 2.48 2.553-.07.458-1.08 1.7-1.39 1.854-.31.155-2.32-1.316-4.95-1.16zm.67 8.277c-.67-.39-2.37-4.483-1.98-4.483.39 0 .58-.593 1.98-.39.96.135 1.98.39 2.13.774.15.39-1.46 4.483-2.12 4.1zm24.39 18.873c-.31 1.854.39 3.17 0 3.32-.39.16-3.09 2.09-3.09 2.09s1.1-8.432 2.83-10.9c1.73-2.478 2.28-3.485 2.82-3.565 1.02-.14-2.24 7.2-2.55 9.06zm3.71-13.767c-.31.22-4.2-.36-6.41 2C88 87.3 86.46 96.58 86.54 98.2c.072 1.63-.856 4.644-.77 5.5.07.85-2.25 1.39-3.33 2.55-1.088 1.16-2.016 1.47-2.016 1.47S82.777 91.56 83.88 88c1.108-3.557 4.036-8.274 6.674-8.818.957-.194 4.333-.85 5.34-.85 1.002 0 2.318-.616 2.398 0 .076.62-.16 3.095-.47 3.33zm.47-8.28c-.47 0-5.49.62-7.5 1.31-2.01.69-4.72.38-7.03 2.93-2.32 2.55-3.95 5.95-4.87 13.76-.92 7.81-1.26 12.3-1.52 13.53-.25 1.24-2.65 3.02-3.81 3.71-1.16.69-4.1 1.31-4.71 1.31s2.94-4.72 3.56-7.51c.63-2.78-.23-14.62 2.4-20.8 2.63-6.2 8.68-9.49 12.77-10.03 2.09-.27 6.8-.96 8.9-.89 2.08.073 1.93-.2 2.39.44.46.64-.08 2.19-.54 2.19zm13.66 1.16c.18.31-1.26-1.01-2.28.46-1.02 1.47-3.18 6.27-3.72 8.51s-1.12 5.87-1.29 6.27c-.17.38-4.89 5.48-4.96 4.86-.08-.62 3.17-12.14 3.48-14.39.31-2.25 2.63-6.65 3.95-8.19.5-.59 4.13-1.49 4.85-1.33.73.16-.17 3.48.01 3.8zm1.89-11.21c-.47.07-1.24-.32-1-.7.23-.39-2.53.89-4.71 2.55-2.24 1.7-2.24 1.7-2.94 1.7s-3.4-2.64-10.97-3.33c-7.58-.7-13.54 3.02-14.31 2.79-.77-.24-3.17-2.48-3.95-3.33-.69-.77-1.51-3.4-2.06-4.1-.33-.16-.41-.26-.18-.16.06.02.12.07.18.15.43.2 1.25.49 2.3.54 1.86.07 1.47-.39 1.86-.7.39-.32-.23-4.11.46-6.81.7-2.71 1.24-5.26 1.55-5.26.31 0 2.01 7.11 3.33 7.11s2.48-2.79 3.33-4.33c.86-1.55 1.6-2.86 2.23-2.94.64-.08.32 7.35.32 8.27 0 .93-.62 3.4-.93 3.95-.36.57-1.36 1.73-.36 1.81 1.01.08 5.42.69 5.65-.24.24-.92-.07-8.97-.07-9.82 0-.86-.47-5.96-.55-6.43-.07-.47.55-9.07 0-8.79-.53.27-4.12.27-4.1.97.01.7-2.54 3.63-2.7 4.1-.16.46-.95 2.24-1.13 2.31-.18.08-1.02-.29-1.65-1.35-.53-.86-1.54-1.58-1.99-2.2-.14-.19-.72-.48-.96-.54-.59-.16-2.12-.16-2.32-.23-.21-.07-1.02-.86-1.25-.39-.23.46-.46 2.16-1.62 6.96-1.17 4.79-2.79 10.82-3.25 10.28-.47-.54-2.72-6.81-3.25-8.12-.55-1.32-2.56-8.12-2.79-8.66-.24-.54-1.24-3.48-1.71-3.48-.46 0-2.55.14-2.86.34-.31.2-3.17 4.68-3.632 5.53-.46.85-2.443 4.08-2.64 4.72-.15.5-1.03.56-1.46-.47-.38-.93-1.16-3.4-1.62-4.02-.46-.62-2.01-7.36-2.473-9.13-.46-1.78-.46-3.25-.46-3.25s1.08-.08 1.85-.23c.78-.16 0-7.04-.46-8.28-.462-1.24-.693-7.04-.462-7.2.23-.15 4.02-.92 4.02-1.39 0-.47.39-3.02-.3-3.33-.697-.31-2.786-.31-6.496 0-3.713.31-7.115.7-7.35 1.09-.23.383-1.234 1.39-.85 2.472.39 1.08.93 1.625 1.084 2.78.15 1.16-.013.39 2.31.156 2.32-.23 4.087-.45 3.955.466-.1.69.47 6.19.47 7.04s.15 3.943.15 3.943-.54-.63-1.31-.23c-.78.38-3.41 8.5-3.56 10.13-.154 1.62-1.63 4.95-1.94 4.95-.31 0-.93-5.03-2.7-5.03-1.78 0-2.554 1.78-2.79 2.55-.23.77-.85 1.54-1.7 1.46-.85-.074-3-4.566-3.94-4.33-2.786.696-1.315 3.4-1.78 5.18-.463 1.78-2.553 6.5-2.784 8.28-.23 1.776-1.55 4.254-1.7 5.41-.16 1.16 3.09 1.707 3.56 2.17.46.464 1.155 1.316 1.93-2.17.77-3.474 1.16-6.11 1.78-6.26.62-.15 2.085 3.944 2.935 3.79.854-.15.854-1 .93-1.31.075-.31 1.01-3.715 1.78-3.715s1.32 2.73 1.32 3.35-4.747 14.85-5.65 14.85c-.54 0-3.867-4.568-7.81-6.348-3.946-1.78-5.068-3.48-8.2-3.4-3.328.07-4.64.77-8.2 1.85-3.57 1.083-3.41 2.474-3.64 1.63-.24-.86-.7-8.59-.547-10.37.16-1.778 3.636-12.065 4.95-14.85 1.34-2.76 9.555-18.377 23.77-23.57 4.296-1.56 9.51-5.41 14.46-5.49 1.095-.015 7.427-.638 9.36-1.018 1.934-.37 3.905.065 8.176 0C69.39 3.58 78.83 5.59 81.806 6.46c2.97.873 12.94 7.524 13.82 8.228.87.7 2.37.28 3.89 2.018.58.653 9.27 10.506 12.9 25.973.82 3.45 1.35 9.49 1.43 11.27.08 1.78.46 9.29 0 9.37z"/>
  <path d="M38.116 12.898c-1.082-.304-4.015.494-4.797.698-1.33.35-3.56 1.39-4.26 1.7-.7.31-1.24 1.78-1.78 3.246-.54 1.47-1.47 3.17-1.01 3.944.46.778 4.02 2.787 3.94 3.635-.08.86-3.33.7-4.26.7-.93 0-4.1-.38-5.11-.08-1.01.32-.16 1.55-.54 2.02-.39.47-.85 3.02-.85 3.41 0 .39 3.86.85 6.72.7 2.86-.15 4.02.39 7.04-1.39s2.86-4.49 2.45-6.03c-.41-1.54-2.84-1.93-3.54-3.17-.7-1.23.46-2.01 1.7-2.55s4.25-.92 5.02-.92c.772 0 .54-.31.47-1.31-.08-1-.16-4.25-1.24-4.56zm30.396-2.243c-.538-1.39-3.79-1.67-4.02-.978-.233.698-.622 4.533-.7 4.847-.076.31-.31 6.417-.31 7.58 0 1.16-.308 3.325-1.547 3.325-1.236 0-1.623-3.18-1.855-5.34-.23-2.17-.772-7.97-1.11-9.36s-1.443-1-2.216-1c0 0-1.005-.23-1.63.15-.627.39.315 5.26.07 8.74s.088 10.9 1.56 11.76c1.47.84 4.253 2.09 7.347 1 3.1-1.08 4.18-3.4 4.57-5.65.39-2.25.77-2.4.69-3.41-.07-1.01-.31-10.29-.85-11.68zm3.79.08c-.55.04-.154 5.49-.39 8.122-.2 2.294.08 12.142.39 12.95.31.812 1.007 1.436 5.645-.425 4.643-1.854 5.88-6.806 6.033-9.125.154-2.324-1.625-6.417-3.71-8.97-2.094-2.553-7.106-2.618-7.968-2.553zM77.916 26.3c-.742.154-1.077-1.945-1.052-4.817.024-3.066-.135-3.79 1.052-3.715.878.06 2.808 2.688 2.737 3.89-.144 2.503-1.994 4.487-2.737 4.642zm10.86-12.396s-1.087-.464-1.392-.31c-.313.155-1.24 9.898-1.082 11.06.15 1.163-1.007 8.278-1.007 8.587 0 .31.384.62 2.937.78 2.554.16 2.554-.47 2.862-2.21.31-1.74-.853-10.71-.927-14.57-.08-3.86-.463-2.94-1.39-3.32zM102.928 30.3c0-2.548-1.467-5.335-2.554-7.444-1.082-2.104-1.675-2.627-2.702-2.842-4.812-.998-5.03 3.48-4.797 6.806.23 3.326.36 9.35 3.944 9.28 3.58-.065 6.1-3.246 6.1-5.8zm-5.49 1.506c-.618.354-1.392-2.667-1.47-4.133-.076-1.47-.31-2.553.852-2.788.683-.134 2.22.978 2.09 4.104-.087 2.01-.854 2.47-1.472 2.81zm-80.05 4.298c-7.19 0-7.038 6.263-7.733 9.738-.698 3.485 0 7.43 2.862 7.818 2.862.384 6.263 1.39 8.507-2.478 2.243-3.864 1.857-12.142.927-12.92-.92-.77-3.39-2.158-4.56-2.158zm-.85 14.46c-1.703 1.083-3.558-.388-3.25-3.634.31-3.246.697-3.326 2.01-4.797 1.317-1.47 1.526-1.236 2.245-1.157 1.692.19 1.7 1.257 1.935 4.11.23 2.85-1.24 4.397-2.94 5.48zm92.732 4.638c-.463.15-6.342 1.013-7.115.698-.772-.31 0-3.017-.074-4.173-.08-1.162 1.93-1.316 2.71-1.7.78-.39 4.03-1.162 4.55-1.396.52-.22.48-2.24 0-2.78-.49-.54-3.54 1.24-4.62 1.17-1.08-.08-3.09-.15-3.09-1.92 0-1.76 2.09-2.02 3.1-2.41 1.01-.38 4.18.08 4.57-.62.39-.69-1.31-5.18-1.7-5.41-.38-.23-4.32.47-5.96.47-1.02 0-2.39-.08-3.4.78-1 .85-.85 8.82-.85 11.98 0 3.18-.15 11.22.51 11.3.67.08 9.7-.7 10.94-.78 1.24-.07 2.86-1.38 3.1-2.01.23-.61-.39-2.55-.54-3.17-.16-.62-1.63-.15-2.09 0z"/>
</svg>
