<svg xmlns="http://www.w3.org/2000/svg" width="40" height="40" viewBox="0 0 150 150">
  <circle cx="74.77" cy="73.76" r="72.24" fill="#FFF"/>
  <g fill="#9FC2E7">
    <path d="M23.77 21.86C28.32 17.23 45.07 7.7 50.1 6.1s19.33-4.27 26.14-4.2c6.8.08 36 6 37.07 7.96 1.1 1.97 12 6.8 21 20.06 9 13.25 13.1 48.17 12.7 52.1-.3 3.95-11.3 5.02-13.4 8.06s-5 5-9.5 6.27-14.8 1.07-16.1 5.73-4.8 2.15-5.7 15.4c-.9 13.25-2.3 20.6-4.8 22.56-2.5 1.97-14.5 4.12-13.6 2.68.9-1.44 3.6-7.35 6.5-12S93.1 118 93.1 118s3.4-14.33 6.26-20.06 6.1-10.92 10.03-10.92c3.9 0-3.4-1.8-3.4-1.8l-2-1.76s-1.3-4.3-5.7-4.83c-4.4-.54-4.6.53-4.6.53s3.9 5.2 4.5 7.52c.7 2.32-1.1 1.62-3.6 1.62-2.6 0-8.3-2.5-11-1.98-2.7.54-.2-5.17.3-6.34.5-1.18-4.1 1.15-5.6 2.05s-17-31.16-17-31.16l-2.9-.9-11 25.93-6.7 9.2s-6.6 21-9.5 21.9c-2.9.9-15.6-2.82-18.7.2-3 3.08-7.7-15.55-7.7-15.55L3.5 78.1l7.2-32.24c1.2-5.73 11.5-22.46 13-24z"/>
    <path d="M23.05 123.4l5.73-10.75s-4.83-2.32-8.6-2.5-5.73 2.5-5.73 3.4 8.6 9.86 8.6 9.86zm61.78-30.45s7.17-.7 7.88.72c.8 1.43-3.2 6.44-3.2 6.44L84.9 93zm42.63 4.48s-.9 10.03-1.97 10.03-9.7 1.07-10.8 6.27c-1.1 5.2-3.8 22.02-3.8 22.02h-6.1s3-14.14 4.1-16.47c1-2.33 3-17.2 7.1-19.16s11.3-2.7 11.3-2.7z"/>
    <path d="M125.5 110.14l-2.52 17.2-5.9 2.5s4.3-17.74 8.4-19.7zm18.25-18.26v4.56l-4.12 1-4.47 13.6-2.33 7.7h-2.33s0-22.2 6.63-24.54l6.62-2.32z"/>
  </g>
  <path d="M147.5 51.82c-2.68-8.7-9.38-23.23-12.28-25.68-2.9-2.46-10.72-10.28-20.1-16.53C105.74 3.4 89.9-.2 80.28 0 53.93.7 37.4 8.06 31.6 12.53c-5.8 4.47-14.96 9.6-23 25.68C-.3 56-.78 73.7.56 81.8c1.34 8 3.14 18.5 10.5 33 7.37 14.5 18.75 22.54 35.06 27.9 16.3 5.36 32.38 6.7 44.43 3.8 12.06-2.9 19.43-5.8 31.94-14.5 12.5-8.73 15.4-13.4 16.7-16.54 1.3-3.13 10.7-15.18 11.1-33.5.4-18.3-.3-21.42-2.9-30.14zM7.3 90.3c-.2-.3-1.2-4.13-1.1-5.42.1-1.3 6.22-4.64 8.8-5.14 2.55-.5 5.12-.4 7.2 0 2.93.55 6.9 1.78 8.38 1.98 1.48.2 6.12 5.62 6.12 6.22 0 .6-1.38 3.05-1.68 3.5-.3.44-7-4.6-12.24-4.9-5.23-.28-8.34.4-10.8 1.4-2.44.98-4.5 2.65-4.7 2.36zm3.54 7.44c.4-1.3 8.2-3.7 11.75-3.15 1.6.2 4.2.5 6.2 1.5 1.9 1 4.8 2.8 4.8 2.8s-2.2 5.3-2.8 5.3-4.2-2.6-9.1-1.7-8.2 1.3-9 1.7c-.8.4-2.4-5.3-2-6.6zm11.26 23.14c-.4-.26-6.6-6.97-5.82-8.65s3.43-3.18 5.33-2.96c1.4.16 5.7 1.3 5.9 1.68.2.4-4.9 10.2-5.3 9.94zm63.77 0c-.7 1.7-.6 4.28-2.17 9.5-1.58 5.25-2.18 9.5-4.25 10.57-2.07 1.1-17.76-.3-23-1.47-5.22-1.18-17.95-6.22-20.03-7.4-2.07-1.18-6.7-2.56-7.45-4.14-.74-1.58 1.83-2.76 6.47-12.6 4.03-8.53 8.9-19.7 10.27-23.88 1.4-4.2 7.4-20.9 7.5-22.42.1-1.5 5.2-14.34 6.3-14.44 1.1-.1 2.6 11.55 8 21.52 5.5 9.97 10 18.76 11.3 20.83 1.3 2.08 7.8 10.76 7.8 10.76.3 1 .2 11.5-.5 13.2zm-3.26-57.8c.5 1.08 2.6 7.9 3 9.17.4 1.3 1.3 3.16 1.3 3.86 0 .7-1.9-.5-4.3 0s-3.3 1.5-4 .8c-.7-.7-5.6-7.1-5.4-7.8.2-.7 2.5-6.5 3.9-6.6.8 0 5.3-.4 5.8.7zm-4.5-6.32c.1-.8.7-3.78 1.3-3.45.9.6 1.8 2.7 1.4 3.5-.4.8-2.7.8-2.6 0zm10.1 30.4c-3.3.2-5.1 1.2-5.4.4-.3-.78-1.2-3.35-.9-3.94.4-.6 2.1-2.47 6.3-2.47.9 0 2.7.2 5 1.87 2.3 1.68 3.3 2.67 3.2 3.26-.1.6-1.4 2.17-1.7 2.37-.4.2-2.9-1.68-6.3-1.48zm.8 10.56c-.8-.5-3-5.72-2.5-5.72s.8-.75 2.6-.5c1.3.2 2.6.5 2.8 1 .2.5-1.8 5.73-2.7 5.23zm31.2 24.1c-.4 2.36.5 4.04 0 4.24s-3.9 2.67-3.9 2.67 1.4-10.76 3.6-13.92c2.2-3.1 2.9-4.4 3.6-4.5 1.3-.2-2.8 9.2-3.2 11.6zm4.8-17.58c-.4.3-5.3-.45-8.2 2.57-4.3 4.7-6.3 16.5-6.2 18.6.1 2.1-1.1 6-1 7 .1 1.1-2.8 1.8-4.2 3.3-1.4 1.5-2.5 1.9-2.5 1.9s3-20.6 4.4-25.1c1.5-4.5 5.2-10.5 8.6-11.2 1.3-.2 5.6-1 6.8-1 1.3 0 3-.8 3.1 0 .1.8-.2 4-.6 4.3zm.6-10.56c-.6 0-7 .8-9.6 1.68-2.6.9-6 .5-9 3.75-3 3.3-5 7.7-6.2 17.6-1.2 10-1.6 15.7-2 17.3-.3 1.6-3.3 3.9-4.8 4.8-1.5.9-5.2 1.7-6 1.7-.8 0 3.8-6 4.6-9.5.8-3.5-.3-18.6 3.1-26.5s11.1-12.1 16.3-12.8c2.7-.3 8.7-1.2 11.4-1.1 2.7.1 2.5-.2 3.1.6.6.8-.1 2.8-.7 2.8zm17.5 1.5c.3.4-1.6-1.3-2.9.58-1.3 1.88-4 8-4.7 10.86-.7 2.87-1.4 7.5-1.6 8-.2.5-6.2 7-6.3 6.22-.1-.8 4.1-15.5 4.5-18.36.4-2.86 3.4-8.5 5.1-10.46.7-.74 5.3-1.9 6.2-1.68.9.2-.2 4.45 0 4.85zm2.4-14.32c-.5.1-1.5-.4-1.2-.9.3-.48-3.2 1.16-6 3.27-2.8 2.17-2.8 2.17-3.7 2.17s-4.3-3.35-14-4.24c-9.7-.9-17.3 3.84-18.3 3.54-1-.27-4-3.14-5-4.22-.9-.98-1.9-4.33-2.6-5.23-.4-.2-.5-.33-.2-.2.1.03.2.1.3.2.6.26 1.6.63 3 .7 2.4.1 1.9-.5 2.4-.9s-.3-5.23.6-8.7 1.55-6.7 1.95-6.7c.4 0 2.6 9.08 4.28 9.08 1.7 0 3.2-3.55 4.27-5.53 1.1-2 2.05-3.67 2.86-3.76.8-.1.4 9.37.4 10.56 0 1.18-.8 4.34-1.2 5.03-.4.7-1.7 2.17-.4 2.27 1.3.1 6.9.9 7.2-.3s-.1-11.44-.1-12.53c0-1.08-.6-7.6-.7-8.2-.1-.58.7-11.56 0-11.2-.7.36-5.3.36-5.3 1.25 0 .9-3.3 4.64-3.46 5.23-.2.6-1.2 2.87-1.4 2.96-.2.1-1.3-.3-2.1-1.7-.7-1.1-2-2-2.5-2.8-.2-.2-.98-.6-1.28-.7-.73-.2-2.7-.2-2.94-.3-.24-.1-1.3-1.1-1.6-.5-.3.6-.6 2.8-2.04 8.9-1.5 6.1-3.58 13.8-4.18 13.1-.6-.7-3.4-8.7-4.1-10.3-.7-1.7-3.3-10.3-3.6-11-.3-.7-1.55-4.4-2.14-4.4-.6 0-3.26.2-3.65.5-.4.3-4.06 6-4.6 7.1-.6 1.1-3.2 5.2-3.4 6.1-.2.7-1.4.7-1.9-.6-.5-1.1-1.5-4.3-2.1-5.1-.6-.8-2.6-9.4-3.2-11.6-.6-2.3-.6-4.1-.6-4.1s1.34-.1 2.3-.3c1-.13 0-8.92-.6-10.5-.6-1.6-.9-9-.6-9.2.3-.2 5.18-1.2 5.18-1.8s.5-3.86-.4-4.26c-.9-.4-3.53-.4-8.3 0s-9.05.8-9.35 1.3c-.3.5-1.6 1.8-1.1 3.17.5 1.4 1.2 2.1 1.4 3.57.2 1.5-.03.5 2.9.2s5.3-.6 5.1.6c-.1.87.6 7.9.6 8.98 0 1.1.2 5.08.2 5.08s-.7-.8-1.65-.3c-.94.44-4.3 10.8-4.5 12.9-.2 2-2.07 6.3-2.47 6.3-.4 0-1.2-6.4-3.46-6.4-2.3 0-3.3 2.2-3.6 3.2s-1.1 2-2.2 1.9c-1.04-.1-3.8-5.8-5-5.5-3.55.9-1.7 4.3-2.3 6.6-.6 2.23-3.23 8.3-3.52 10.53-.3 2.3-1.96 5.44-2.16 6.9-.2 1.5 4 2.2 4.6 2.8.6.6 1.5 1.7 2.5-2.76s1.5-7.8 2.3-8c.8-.2 2.63 5.03 3.72 4.83 1.1-.2 1.1-1.3 1.15-1.7.1-.4 1.3-4.8 2.3-4.8s1.67 3.5 1.67 4.3c0 .8-6.02 18.94-7.2 18.94-.7 0-4.9-5.8-9.95-8.1C25.4 73.1 24 70.9 20 71c-4.24.1-5.9 1-10.46 2.33s-4.4 3.14-4.7 2.1c-.3-1.1-.9-11-.7-13.26.2-2.3 4.67-15.4 6.35-18.97 1.6-3.56 12.1-23.5 30.3-30.1 5.5-2 12.1-6.93 18.4-7 1.4-.04 9.5-.85 12-1.3 2.5-.5 5 .06 10.4 0 7.1-.13 19.2 2.43 23 3.55 3.8 1.1 16.5 9.6 17.6 10.5 1.1.9 3 .37 4.9 2.6.7.83 11.8 13.4 16.5 33.15 1 4.4 1.7 12.1 1.8 14.4.1 2.3.6 11.86 0 11.96z"/>
  <path d="M48.65 16.47c-1.38-.4-5.12.62-6.12.9-1.7.43-4.54 1.76-5.43 2.16s-1.58 2.27-2.27 4.14c-.7 1.88-1.88 4.05-1.28 5.04.6 1 5.13 3.6 5.03 4.7-.1 1.1-4.24.9-5.42.9-1.18 0-5.23-.5-6.5-.1-1.3.4-.2 2-.7 2.6-.5.6-1.08 3.9-1.08 4.4s4.94 1.1 8.6.9c3.65-.2 5.13.5 8.98-1.8s3.65-5.7 3.14-7.7c-.52-1.9-3.63-2.4-4.52-4s.6-2.5 2.17-3.2 5.43-1.2 6.42-1.2c1 0 .7-.4.6-1.6-.1-1.2-.2-5.4-1.6-5.8zm38.8-2.87c-.7-1.77-4.84-2.13-5.14-1.25-.3.9-.7 5.8-.8 6.2-.1.38-.4 8.18-.4 9.66 0 1.5-.4 4.3-1.9 4.3s-2.1-4.1-2.4-6.8c-.3-2.8-1-10.2-1.4-12s-1.8-1.3-2.8-1.3c0 0-1.3-.3-2.1.2s.4 6.7.1 11.2c-.3 4.5.1 13.9 2 15 1.9 1.1 5.4 2.7 9.4 1.3 4-1.4 5.4-4.3 5.9-7.2.5-2.9 1-3 .9-4.3-.1-1.3-.4-13.1-1.1-14.9zm4.83.1c-.7.05-.2 7-.5 10.37-.25 2.93.1 15.5.5 16.53.4 1.03 1.3 1.83 7.2-.54s7.5-8.7 7.7-11.65c.2-2.9-2.06-8.2-4.72-11.4-2.66-3.2-9.06-3.3-10.17-3.2zm7.17 19.87c-.95.2-1.37-2.48-1.35-6.15.03-3.9-.17-4.83 1.35-4.74 1.12.08 3.58 3.43 3.5 4.96-.2 3.2-2.56 5.73-3.5 5.93zm13.86-15.82s-1.3-.6-1.7-.4c-.4.2-1.6 12.64-1.4 14.12.2 1.48-1.3 10.56-1.3 10.96 0 .4.5.8 3.8.98 3.3.2 3.3-.5 3.7-2.8.4-2.2-1.1-13.6-1.2-18.6-.1-4.9-.6-3.7-1.7-4.2zm18.1 20.93c0-3.26-1.8-6.82-3.2-9.5-1.3-2.7-2.1-3.36-3.4-3.63-6.1-1.27-6.4 4.44-6.1 8.7.3 4.23.5 11.92 5.1 11.83 4.6-.08 7.8-4.14 7.8-7.4zm-7 1.92c-.8.44-1.8-3.4-1.9-5.28-.1-1.88-.4-3.26 1.1-3.56.9-.18 2.9 1.24 2.7 5.23-.1 2.5-1.1 3.1-1.9 3.6zM22.2 46.08c-9.2 0-9 8-9.9 12.43s0 9.5 3.66 10 8 1.8 10.86-3.1 2.38-15.5 1.2-16.5c-1.2-1-4.34-2.7-5.83-2.7zm-1.1 18.46c-2.17 1.38-4.54-.5-4.15-4.64.4-4.15.9-4.25 2.57-6.12 1.7-1.88 1.95-1.6 2.87-1.48 2.1.24 2.1 1.6 2.4 5.24.3 3.64-1.6 5.6-3.8 7zm118.36 5.9c-.6.2-8.1 1.3-9.1.9-.97-.4 0-3.85-.08-5.33-.1-1.4 2.45-1.6 3.44-2.1 1-.5 5.14-1.5 5.8-1.8.67-.3.63-2.8 0-3.5-.6-.7-4.5 1.6-5.9 1.5-1.37-.1-3.93-.2-3.93-2.4s2.6-2.6 3.9-3.1c1.3-.5 5.3.1 5.8-.8s-1.7-6.6-2.2-6.9c-.5-.3-5.6.6-7.6.6-1.3 0-3.1-.1-4.4 1-1.3 1.1-1.1 11.3-1.1 15.3 0 4.1-.2 14.3.6 14.4.8.1 12.3-.8 13.9-.9 1.5-.1 3.6-1.8 3.9-2.6.3-.8-.5-3.2-.7-4-.2-.8-2.1-.2-2.7 0z"/>
</svg>